<svg width="787" height="568" viewBox="0 0 787 568" fill="none" xmlns="http://www.w3.org/2000/svg">
<g clip-path="url(#clip0_18_5)">
<path d="M545.064 135.495C546.238 135.647 547.412 135.799 548.586 135.951C552.322 135.766 555.565 134.422 559.36 133.026C560.531 135.301 561.677 137.589 562.801 139.887C563.185 140.664 563.576 141.437 563.973 142.207C567.342 148.745 569.67 155.78 565.282 164.363C564.887 165.175 564.492 165.988 564.085 166.825C563.71 167.583 563.336 168.341 562.95 169.122C561.388 172.777 560.059 176.418 558.8 180.06C558.597 180.643 558.394 181.227 558.185 181.828C557.785 182.983 557.39 184.138 557.003 185.291C556.037 188.085 554.934 190.733 553.356 193.527C551.462 196.89 550.368 200.075 549.291 203.425C547.752 207.994 545.939 212.055 542.79 216.585C541.236 218.884 540.48 221.016 539.68 223.338C539.174 224.61 538.663 225.882 538.15 227.155C537.224 229.467 536.541 231.542 536.022 233.83C534.505 239.092 528.966 244.675 524.255 249.415C533.051 247.23 544.581 241.483 551.012 235.467C552.49 233.91 553.886 232.342 555.275 230.755C560.054 225.676 564.095 223.142 570.97 219.896C577.25 216.777 581.213 213.41 585.84 208.923C592.743 202.259 600.779 196.426 609.735 191.373C611.553 197.53 611.856 203.394 611.226 210.296C610.993 213.423 611.125 216.439 611.252 219.475C611.442 224.254 611.054 228.936 609.762 234.027C608.349 234.725 608.349 234.725 606.907 235.438C597.788 239.93 597.788 239.93 589.982 245.818C587.533 247.271 585.692 247.294 583.09 247.676C579.116 248.54 575.464 250.447 571.711 252.25C570.905 252.624 570.098 252.997 569.267 253.382C565.308 255.254 562.785 256.569 559.812 259.415C557.831 260.5 557.831 260.5 555.727 261.451C555.032 261.77 554.338 262.09 553.622 262.419C551.655 263.219 551.655 263.219 548.668 263.912C546.764 264.749 544.874 265.622 542.994 266.514C541.88 267.038 540.767 267.563 539.619 268.104C537.275 269.215 534.932 270.326 532.588 271.437C531.472 271.962 530.356 272.488 529.206 273.03C527.677 273.755 527.677 273.755 526.118 274.494C523.291 275.744 523.291 275.744 520.78 276.479C517.845 277.509 516.606 278.622 514.357 280.543C509.717 284.279 505.336 286.569 499.758 289.165C490.105 293.814 480.806 298.788 471.505 303.999C470.844 304.369 470.182 304.74 469.501 305.122C460.71 310.054 451.977 315.049 443.389 320.245C440.498 321.991 437.584 323.687 434.65 325.38C426.28 330.304 418.31 335.715 410.291 341.022C410.468 341.401 410.644 341.78 410.826 342.171C413.695 341.295 416.564 340.419 419.519 339.516C419.696 339.896 419.873 340.275 420.055 340.666C419.171 341.255 418.287 341.845 417.376 342.453C409.723 347.549 409.723 347.549 402.393 352.923C399.924 354.828 397.786 356.166 394.74 357.365C394.917 357.744 395.094 358.123 395.276 358.514C389.638 362.662 383.989 366.802 378.332 370.935C376.41 372.342 374.49 373.751 372.572 375.162C369.814 377.191 367.047 379.212 364.277 381.232C363.423 381.864 362.569 382.495 361.689 383.145C356.868 386.647 353.202 389.229 347.229 390.076C346.655 390.09 346.08 390.104 345.487 390.119C344.834 390.139 344.18 390.16 343.507 390.18C342.826 390.192 342.144 390.204 341.442 390.215C340.724 390.234 340.006 390.252 339.266 390.271C337.142 390.321 335.023 390.358 332.905 390.393C331.302 390.429 331.302 390.429 329.667 390.465C325.397 390.527 321.326 390.56 317.409 389.965C311.268 389.117 306.541 388.986 299.512 391.967C288.891 396.952 275.98 404.135 267.792 411.659C266.177 412.48 264.542 413.266 262.898 414.029C262.021 414.439 261.144 414.85 260.241 415.273C257.823 416.308 257.823 416.308 254.836 417.001C247.464 419.828 242.168 423.654 236.241 428.294C234.505 429.62 232.766 430.944 231.025 432.267C230.189 432.904 229.353 433.542 228.491 434.198C214.251 445.009 199.271 452.463 181.907 458.007C175.053 460.211 170.544 462.756 164.972 466.934C160.383 470.254 155.614 472.862 150.484 475.536C148.789 476.428 147.095 477.321 145.402 478.216C144.664 478.602 143.926 478.988 143.166 479.385C140.949 480.6 138.87 481.888 136.768 483.242C136.802 482.534 136.836 481.826 136.871 481.096C137.469 480.817 138.067 480.538 138.684 480.251C138.418 479.682 138.153 479.113 137.88 478.527C134.379 480.39 130.879 482.253 127.272 484.173C129.155 481.232 131.177 479.044 133.836 476.344C135.263 474.924 135.263 474.924 135.469 473.356C134.49 474.017 133.511 474.678 132.502 475.36C130.225 476.897 127.942 478.428 125.655 479.956C119.737 483.92 113.875 487.92 108.104 492.017C107.307 492.578 107.307 492.578 106.495 493.151C102.792 495.797 99.2988 498.548 95.8084 501.354C94.8719 502.106 93.9354 502.858 92.9705 503.633C92.2587 504.206 91.5469 504.778 90.8136 505.368C86.9608 497.984 83.1877 490.564 79.513 483.093C77.804 479.625 76.0691 476.172 74.2715 472.746C72.5362 469.437 70.8736 466.097 69.2582 462.73C68.6309 461.454 67.9782 460.191 67.2995 458.94C62.1368 449.371 62.1369 449.371 64.4274 444.956C67.3199 441.041 71.864 435.865 77.1241 433.413C77.3893 433.982 77.6545 434.55 77.9278 435.136C95.2446 422.607 95.2446 422.607 109.627 408.466C111.429 406.706 113.263 404.972 115.131 403.244C117.166 400.991 117.999 398.996 118.275 396.696C119.272 393.807 122.267 391.683 125.379 389.449C128.79 387.542 132.315 385.943 135.888 384.331C134.025 387.57 131.153 390.231 128.179 393.171C126.277 395.073 126.277 395.073 125.507 397.564C136.525 393.196 143.326 388.209 151.842 380.999C155.145 378.273 158.704 375.773 162.265 373.24C164.257 371.859 164.257 371.859 165.796 370.386C167.778 369.412 169.777 368.471 171.784 367.55C172.864 367.053 173.943 366.556 175.056 366.044C175.888 365.664 176.721 365.284 177.579 364.892C177.402 364.513 177.225 364.134 177.043 363.743C177.651 363.476 178.259 363.209 178.885 362.933C183.367 360.914 186.518 359.329 190.102 356.255C192.298 355.493 192.298 355.493 193.995 355.139C193.784 355.468 193.574 355.797 193.357 356.137C199.646 353.489 204.559 350.548 210.026 346.733C213.476 344.471 216.814 342.955 220.649 341.313C220.826 341.692 221.003 342.071 221.185 342.462C225.304 339.431 229.149 336.419 232.91 333.148C243.077 324.637 257.833 315.819 270.998 311.455C276.374 309.419 280.399 306.349 284.802 303.051C285.51 302.532 286.218 302.013 286.947 301.478C291.53 297.927 293.533 295.384 295.037 291.103C295.91 289.232 297.042 288.27 298.879 286.652C299.613 284.822 299.613 284.822 299.979 282.948C300.405 281.042 300.405 281.042 300.999 279.368C302.213 278.456 302.213 278.456 303.45 277.526C304.032 280.478 303.677 283.486 303.308 286.685C304.004 286.13 304.701 285.574 305.419 285.001C312.466 280.022 321.332 276.418 329.591 274.43C329.768 274.81 329.945 275.189 330.127 275.58C328.509 276.795 326.891 278.011 325.225 279.264C336.927 274.379 345.754 269.114 355.371 261.567C357.168 260.169 358.996 258.805 360.838 257.44C364.6 254.62 368.105 251.693 371.584 248.687C372.513 247.89 372.513 247.89 373.462 247.077C376.839 244.15 379.863 241.284 382.722 238.117C386.223 234.333 390.001 232.529 395.194 230.553C395.67 230.792 396.146 231.032 396.637 231.279C400.354 228.575 403.605 225.793 406.866 222.807C408.901 221.286 410.081 220.909 412.517 220.377C412.206 220.769 411.895 221.16 411.575 221.563C411.159 222.102 410.743 222.641 410.315 223.197C409.702 223.982 409.702 223.982 409.076 224.783C407.298 227.527 406.267 230.14 405.124 232.918C408.074 231.008 411.02 229.094 413.964 227.178C415.202 226.377 415.202 226.377 416.466 225.56C420.965 222.628 425.237 219.664 429.42 216.46C432.65 214.045 436.167 211.911 439.637 209.722C442.106 208.143 442.106 208.143 443.187 206.416C445.562 203.85 448.4 202.591 451.764 200.966C453.165 200.269 454.565 199.572 455.966 198.875C458.154 197.797 460.345 196.723 462.537 195.651C472.215 190.899 480.147 186.3 488.586 180.014C490.964 178.392 493.384 176.82 495.811 175.246C505.424 168.934 513.971 162.517 522.263 155.219C523.889 153.801 525.515 152.384 527.142 150.968C528.785 149.535 530.426 148.102 532.068 146.669C533.328 145.572 533.328 145.572 534.613 144.454C535.415 143.753 536.218 143.052 537.044 142.329C537.766 141.7 538.487 141.071 539.231 140.423C544.242 135.878 544.242 135.878 545.064 135.495Z" fill="#FDFDFD"/>
<path d="M442.673 337.114C442.66 339.429 442.646 341.743 442.633 344.127C452.819 339.032 452.819 339.032 463.21 333.833C462.734 335.852 461.943 336.272 459.801 337.956C459.161 338.46 458.521 338.965 457.861 339.484C457.172 340.019 456.483 340.553 455.774 341.104C455.078 341.648 454.383 342.191 453.667 342.751C449.068 346.317 444.397 349.691 439.388 352.911C437.369 354.287 435.836 355.415 434.333 357.09C434.181 358.404 434.181 358.404 434.498 359.811C434.47 361.378 434.396 362.956 434.291 364.542C434.249 365.364 434.207 366.186 434.163 367.033C433.449 369.393 433.449 369.393 431.371 371.304C428.807 372.914 426.233 374.409 423.541 375.853C417.068 379.326 410.97 382.852 406.858 388.086C406.602 388.928 406.346 389.77 406.082 390.637C404.84 393.224 404.84 393.224 401.756 395.151C400.511 395.747 399.258 396.327 398 396.894C392.506 399.524 388.577 401.919 384.16 405.664C383.174 405.893 382.188 406.122 381.173 406.357C390.062 398.79 390.062 398.79 394.849 395.609C402.286 390.36 407.88 383.287 410.976 376.729C412.762 373.865 415.865 371.455 418.988 369.141C419.586 368.862 420.185 368.583 420.801 368.296C417.725 367.263 416.27 367.761 412.389 368.964C407.823 370.535 405.154 371.946 401.871 375.024C400.885 375.253 399.899 375.481 398.884 375.717C435.725 340.354 435.725 340.354 442.673 337.114Z" fill="#F7F7F7"/>
<path d="M252.219 289.287C252.817 289.003 253.415 288.718 254.032 288.425C255.977 287.504 257.928 286.595 259.88 285.688C260.538 285.381 261.195 285.074 261.873 284.757C271.685 280.192 281.495 275.837 291.811 273.86C292.525 274.22 292.525 274.22 293.253 274.587C292.05 275.032 290.847 275.478 289.607 275.937C281.071 279.249 275.005 282.316 267.964 287.864C265.961 289.41 265.961 289.41 264.148 290.255C264.325 290.635 264.502 291.014 264.684 291.405C268.483 289.402 272.283 287.4 276.198 285.336C274.496 287.994 271.969 289.73 269.11 291.876C268.585 292.282 268.059 292.687 267.517 293.105C263.941 295.801 260.667 297.759 256.321 299.5C255.546 299.4 254.771 299.3 253.973 299.196C253.708 298.627 253.443 298.059 253.169 297.473C252.056 298.383 252.056 298.383 250.919 299.311C249.916 300.114 248.912 300.916 247.908 301.718C246.443 302.9 246.443 302.9 244.949 304.106C241.521 306.468 239.166 307.367 235.208 308.645C233.62 309.327 232.039 310.031 230.473 310.765C229.73 311.11 228.988 311.454 228.223 311.809C226.227 312.829 224.569 313.87 222.787 315.136C223.229 316.084 223.671 317.032 224.127 318.008C217.458 323.337 211.032 328.165 203.344 332.595C205.415 328.911 208.37 325.973 211.739 322.648C216.708 317.687 221.41 312.701 225.876 307.558C228.439 304.648 230.987 302.332 234.445 299.908C234.798 300.667 235.152 301.425 235.516 302.206C237.083 300.926 238.645 299.643 240.204 298.359C241.075 297.645 241.945 296.931 242.842 296.195C248.983 290.827 248.983 290.827 252.219 289.287Z" fill="#F3F3F3"/>
<path d="M252.219 289.287C252.817 289.003 253.415 288.718 254.032 288.425C255.977 287.504 257.928 286.595 259.88 285.688C260.538 285.381 261.195 285.074 261.873 284.757C271.685 280.192 281.495 275.837 291.811 273.86C292.525 274.22 292.525 274.22 293.253 274.587C292.05 275.032 290.847 275.478 289.607 275.937C281.071 279.249 275.005 282.316 267.964 287.864C265.961 289.41 265.961 289.41 264.148 290.255C264.325 290.635 264.502 291.014 264.684 291.405C268.483 289.402 272.283 287.4 276.198 285.336C274.496 287.994 271.969 289.73 269.11 291.876C268.585 292.282 268.059 292.687 267.517 293.105C263.941 295.801 260.667 297.759 256.321 299.5C255.546 299.4 254.771 299.3 253.973 299.196C253.708 298.627 253.443 298.059 253.169 297.473C252.056 298.383 252.056 298.383 250.919 299.311C249.916 300.114 248.912 300.916 247.908 301.718C246.443 302.9 246.443 302.9 244.949 304.106C241.521 306.468 239.166 307.367 235.208 308.645C233.62 309.327 232.039 310.031 230.473 310.765C229.73 311.11 228.988 311.454 228.223 311.809C226.227 312.829 224.569 313.87 222.787 315.136C223.229 316.084 223.671 317.032 224.127 318.008C217.458 323.337 211.032 328.165 203.344 332.595C205.415 328.911 208.37 325.973 211.739 322.648C216.708 317.687 221.41 312.701 225.876 307.558C228.439 304.648 230.987 302.332 234.445 299.908C234.798 300.667 235.152 301.425 235.516 302.206C237.083 300.926 238.645 299.643 240.204 298.359C241.075 297.645 241.945 296.931 242.842 296.195C248.983 290.827 248.983 290.827 252.219 289.287Z" fill="#F3F3F3"/>
<path d="M552.749 277.397C553.779 277.263 553.779 277.263 554.829 277.126C557.462 275.949 560.059 274.753 562.663 273.517C563.389 273.176 564.114 272.835 564.862 272.483C566.655 271.639 568.446 270.791 570.237 269.942C569.866 271.514 569.866 271.514 567.261 273.527C566.076 274.376 564.887 275.221 563.695 276.064C562.39 276.999 561.085 277.935 559.78 278.87C557.726 280.334 555.671 281.797 553.614 283.259C551.624 284.675 549.64 286.096 547.659 287.519C547.003 287.988 546.347 288.458 545.672 288.942C541.799 291.754 538.508 294.534 535.192 297.709C528.851 303.45 521.177 306.565 513.061 310.153C511.535 310.844 510.009 311.536 508.484 312.23C504.791 313.906 501.09 315.559 497.383 317.201C497.955 314.772 500.463 313.168 502.914 311.168C503.45 310.731 503.986 310.294 504.538 309.843C509.384 305.977 514.494 302.76 519.956 299.474C528.828 294.131 536.813 288.476 544.34 282.001C547.136 279.772 549.299 278.671 552.749 277.397Z" fill="#F1F1F1"/>
<path d="M644.386 240.465C643.58 240.198 643.58 240.198 642.758 239.926C640.118 240.12 637.491 240.347 634.83 240.613C634.091 240.684 633.352 240.755 632.59 240.828C630.763 241.005 628.935 241.185 627.106 241.367C628.453 239.866 628.453 239.866 631.654 238.785C633.063 238.364 634.473 237.948 635.883 237.536C637.436 237.071 638.988 236.606 640.541 236.142C642.979 235.418 645.417 234.697 647.856 233.978C650.216 233.28 652.575 232.575 654.935 231.866C655.714 231.633 656.494 231.4 657.298 231.16C661.93 229.743 666.138 228.129 670.637 226.112C679.011 222.6 686.485 222.368 694.594 221.815C696.13 221.694 697.667 221.572 699.204 221.447C702.924 221.15 706.633 220.879 710.339 220.624C708.257 222.943 705.408 223.634 702.323 224.761C701.649 225.008 700.974 225.254 700.279 225.508C694.241 227.646 688.472 228.998 682.41 230.284C672.559 232.379 663.107 235.15 653.402 238.963C649.92 240.194 647.658 240.493 644.386 240.465Z" fill="#F1F1F1"/>
<path d="M413.448 373.823C414.433 373.594 415.419 373.365 416.434 373.129C415.802 374.117 415.17 375.104 414.519 376.121C415.471 376.6 416.423 377.08 417.403 377.574C420.992 375.9 424.581 374.227 428.279 372.503C428.368 372.692 428.456 372.882 428.547 373.077C427.629 373.566 426.71 374.055 425.764 374.558C415.025 380.348 415.025 380.348 406.858 388.086C406.602 388.928 406.346 389.77 406.082 390.637C404.84 393.224 404.84 393.224 401.756 395.151C400.511 395.747 399.258 396.327 398 396.894C392.506 399.524 388.577 401.919 384.16 405.664C383.174 405.893 382.188 406.122 381.173 406.357C390.062 398.79 390.062 398.79 394.849 395.609C402.903 389.925 408.525 382.302 411.903 375.242C412.413 374.774 412.922 374.305 413.448 373.823Z" fill="#EBEBEB"/>
<path d="M223.631 309.846C224.276 309.863 224.921 309.879 225.586 309.897C228.294 309.931 228.294 309.931 232.221 309.338C229.108 311.251 225.995 313.165 222.787 315.136C223.229 316.084 223.671 317.032 224.127 318.008C217.458 323.337 211.032 328.165 203.344 332.595C205.462 328.788 208.633 325.695 212.109 322.257C216.225 318.169 220.051 314.125 223.631 309.846Z" fill="#EBEBEB"/>
<path d="M163.323 360.348C163.5 360.727 163.676 361.106 163.859 361.497C163.378 361.949 162.898 362.401 162.403 362.867C161.779 363.463 161.155 364.06 160.513 364.674C159.892 365.264 159.271 365.854 158.631 366.462C156.789 368.268 156.789 368.268 156.032 370.742C154.219 371.587 152.407 372.432 150.594 373.277C149.68 374.05 148.766 374.822 147.824 375.618C145.032 377.977 143.114 379.056 139.616 380.494C143.135 374.668 146.684 370.639 153.746 366.43C156.93 364.496 160.056 361.871 163.323 360.348Z" fill="#ECECEC"/>
<path d="M135.888 384.331C134.55 386.554 133.021 388.501 131.084 390.593C130.587 391.138 130.09 391.683 129.579 392.245C127.269 394.27 125.058 394.273 122.087 394.962C121.965 395.481 121.843 395.999 121.717 396.534C120.82 396.952 119.922 397.37 118.998 397.801C118.626 396.707 118.626 396.707 118.833 395.081C123.705 389.99 129.081 387.402 135.888 384.331Z" fill="#E3E3E3"/>
<path d="M410.169 220.074C411.066 219.655 411.963 219.237 412.888 218.806C413.452 219.235 414.016 219.664 414.598 220.107C414 220.386 413.401 220.665 412.785 220.952C412.883 221.455 412.981 221.957 413.082 222.475C413.218 224.247 413.218 224.247 411.941 226.242C411.913 227.702 411.913 227.702 412.107 228.962C409.802 230.268 407.498 231.573 405.124 232.918C405.568 230.484 406.521 228.364 407.915 225.889C408.463 224.905 408.463 224.905 409.022 223.9C410.066 222.22 410.066 222.22 411.611 220.8C411.135 220.56 410.659 220.321 410.169 220.074Z" fill="#161616"/>
<path d="M463.21 333.834C462.734 335.854 461.963 336.232 459.785 337.884C459.163 338.359 458.542 338.833 457.902 339.322C457.247 339.816 456.592 340.31 455.917 340.819C455.26 341.319 454.604 341.819 453.927 342.334C452.302 343.571 450.671 344.804 449.04 346.036C448.387 345.417 447.734 344.798 447.062 344.161C448.17 343.413 449.278 342.666 450.419 341.896C450.242 341.517 450.066 341.137 449.883 340.747C454.27 338.264 458.576 335.903 463.21 333.834Z" fill="#F0F0F0"/>
<path d="M545.471 238.124C545.648 238.503 545.825 238.882 546.007 239.273C541.726 242.858 537.297 244.876 532.041 247.183C534.997 242.568 539.836 240.583 545.471 238.124Z" fill="#0C0C0C"/>
<path d="M420.899 335.376C420.987 335.566 421.076 335.755 421.167 335.951C419.671 336.648 418.176 337.345 416.635 338.063C416.9 338.632 417.165 339.201 417.439 339.787C415.326 341.423 414.446 341.986 411.791 342.464C411.174 342.507 410.556 342.549 409.92 342.593C409.954 341.885 409.988 341.177 410.023 340.447C413.569 337.982 416.782 336.762 420.899 335.376Z" fill="#161616"/>
<path d="M299.882 386.861C300.983 386.369 300.983 386.369 302.108 385.867C302.531 386.189 302.954 386.511 303.39 386.843C305.396 387.972 307.213 388.277 309.957 388.503C309.059 388.921 308.162 389.339 307.238 389.77C306.85 389.72 306.463 389.67 306.063 389.618C304.628 390.125 303.2 390.665 301.778 391.223C301.006 391.524 300.235 391.825 299.44 392.135C298.846 392.37 298.251 392.605 297.639 392.847C297.55 392.658 297.462 392.468 297.371 392.273C299.077 391.246 300.783 390.22 302.541 389.163C301.976 388.733 301.412 388.304 300.831 387.861C298.808 388.292 298.808 388.292 296.938 388.977C297.576 387.98 297.576 387.98 299.882 386.861Z" fill="#F5F5F3"/>
<path d="M129.976 390.584C131.068 391.299 131.068 391.299 131.954 392.46C131.594 394.202 131.594 394.202 130.307 396.026C127.485 397.516 127.485 397.516 124.869 398.561C125.666 395.368 126.875 393.479 129.976 390.584Z" fill="#191919"/>
<path d="M635.643 149.917C636.507 150.207 637.37 150.496 638.26 150.795C639.279 149.858 640.299 148.921 641.349 147.956C641.791 148.904 642.233 149.852 642.689 150.828C640.391 152.778 638.878 154.004 635.974 155.358C635.865 153.563 635.756 151.767 635.643 149.917Z" fill="#060606"/>
<path d="M409.428 223.217C410.231 224.941 410.231 224.941 409.222 227.509C408.624 227.788 408.026 228.067 407.41 228.354C407.793 226.45 408.181 225.163 409.428 223.217ZM406.503 228.777C408.353 228.838 410.202 228.899 412.107 228.962C409.802 230.268 407.498 231.573 405.124 232.918C405.785 229.899 405.785 229.899 406.503 228.777Z" fill="#282828"/>
<path d="M160.501 363.762C161.487 363.533 162.473 363.304 163.488 363.069C163.366 363.587 163.244 364.106 163.118 364.64C162.22 365.059 161.323 365.477 160.399 365.908C160.331 367.324 160.263 368.741 160.193 370.2C159.296 370.619 158.399 371.037 157.474 371.468C156.91 371.039 156.346 370.609 155.764 370.167C158.763 365.359 158.763 365.359 160.501 363.762Z" fill="#151515"/>
<path d="M508.732 308.412C508.093 308.897 507.455 309.383 506.797 309.882C504.441 311.706 504.441 311.706 503.727 314.243C500.492 315.882 500.492 315.882 497.383 317.201C497.9 315.008 499.301 314.181 501.586 312.312C502.289 311.729 502.993 311.146 503.718 310.545C505.745 309.105 505.745 309.105 508.732 308.412Z" fill="#DEDEDE"/>
<path d="M570.237 269.942C570.115 270.461 569.992 270.98 569.866 271.514C567.627 273.154 567.627 273.154 564.807 275.01C563.876 275.626 562.944 276.243 561.984 276.878C561.262 277.35 560.539 277.822 559.794 278.309C559.74 277.411 559.685 276.513 559.629 275.588C563.122 273.516 566.494 271.601 570.237 269.942Z" fill="#E9E9E9"/>
<path d="M279.225 277.63C280.299 277.591 281.373 277.552 282.48 277.511C277.229 280.306 277.229 280.306 271.872 283.157C271.307 282.728 270.743 282.298 270.162 281.856C272.63 279.587 275.949 278.618 279.225 277.63Z" fill="#F7F7F7"/>
<path d="M462.201 336.402C462.045 337.629 461.889 338.856 461.728 340.12C459.536 340.964 457.329 341.757 455.116 342.504C454.64 342.264 454.164 342.024 453.674 341.777C454.699 340.928 455.732 340.084 456.767 339.242C457.342 338.771 457.916 338.301 458.507 337.816C460.121 336.673 460.121 336.673 462.201 336.402Z" fill="#212121"/>
<path d="M436.163 337.352C437.061 336.933 437.958 336.515 438.882 336.084C439.059 336.463 439.236 336.842 439.418 337.233C440.404 337.004 441.39 336.775 442.405 336.54C440.606 338.885 439.107 340.456 436.226 342.219C436.365 341.735 436.504 341.252 436.647 340.755C437.141 338.956 437.141 338.956 436.163 337.352Z" fill="#131313"/>
<path d="M272.943 285.455C272.179 286.158 272.179 286.158 271.399 286.875C271.575 287.254 271.752 287.633 271.934 288.024C269.542 289.139 267.149 290.255 264.684 291.404C264.507 291.025 264.33 290.646 264.148 290.255C267.083 287.602 268.958 286.503 272.943 285.455Z" fill="#1A1A1A"/>
<path d="M128.267 389.283C128.742 389.523 129.218 389.763 129.709 390.01C130.395 389.92 131.082 389.831 131.789 389.739C130.112 391.614 130.112 391.614 128.061 393.576C127.076 393.804 126.09 394.033 125.074 394.269C124.51 393.839 123.946 393.41 123.364 392.968C124.982 391.752 126.6 390.536 128.267 389.283Z" fill="#EAEAEA"/>
<path d="M144.353 374.089C145.421 374.902 145.421 374.902 146.33 375.965C145.054 377.959 145.054 377.959 142.255 379.351C140.948 379.917 140.948 379.917 139.616 380.494C142.615 375.686 142.615 375.686 144.353 374.089Z" fill="#DCDCDC"/>
<path d="M305.094 385.174C305.992 384.756 306.889 384.337 307.813 383.906C307.99 384.285 308.167 384.665 308.349 385.055C309.539 384.825 309.539 384.825 310.753 384.59C313.417 384.092 313.417 384.092 315.497 383.821C315.674 384.2 315.851 384.579 316.033 384.97C312.244 386.306 309.169 386.35 305.63 386.323C305.453 385.944 305.277 385.565 305.094 385.174Z" fill="#F3F2F0"/>
<path d="M224.805 309.998C228.344 309.387 228.344 309.387 231.953 308.764C232.042 308.953 232.13 309.143 232.221 309.338C230.961 310.081 229.693 310.815 228.423 311.546C227.718 311.956 227.014 312.366 226.287 312.788C225.642 313.094 224.997 313.4 224.332 313.716C223.557 313.616 222.782 313.515 221.984 313.412C222.915 312.285 223.846 311.159 224.805 309.998Z" fill="#EAEAEA"/>
<path d="M293.173 288.613C294.335 288.763 295.498 288.914 296.695 289.069C295.642 290.714 294.589 292.359 293.503 294.054C292.411 293.34 292.411 293.34 291.525 292.179C292.225 290.279 292.225 290.279 293.173 288.613Z" fill="#171717"/>
<path d="M374.605 244.962C375.539 244.915 375.539 244.915 376.492 244.868C374.365 246.553 372.237 248.237 370.045 249.973C369.78 249.404 369.515 248.835 369.241 248.249C371.771 245.52 371.771 245.52 374.605 244.962Z" fill="#171717"/>
<path d="M142.004 373.785C143.078 373.746 144.152 373.707 145.259 373.666C143.607 375.591 141.956 377.515 140.254 379.497C139.69 379.068 139.125 378.639 138.544 378.196C139.863 377.12 141.181 376.043 142.54 374.934C142.363 374.555 142.186 374.176 142.004 373.785Z" fill="#1D1D1D"/>
<path d="M279.407 275.359C280.278 274.982 281.149 274.605 282.047 274.216C282.312 274.785 282.577 275.354 282.85 275.94C280.738 277.576 279.857 278.139 277.202 278.617C276.585 278.659 275.968 278.702 275.332 278.746C276.609 276.752 276.609 276.752 279.407 275.359Z" fill="#272727"/>
<path d="M408.978 380.803C410.965 380.182 410.965 380.182 412.872 379.687C412.027 381.13 412.027 381.13 410.956 382.678C410.358 382.957 409.76 383.236 409.144 383.523C409.321 383.902 409.497 384.282 409.679 384.672C408.993 384.762 408.306 384.851 407.599 384.943C408.26 381.924 408.26 381.924 408.978 380.803Z" fill="#F8F8F8"/>
<path d="M129.723 482.33C132.415 481.075 135.107 479.82 137.88 478.527C138.145 479.096 138.41 479.665 138.684 480.251C137.875 480.859 137.066 481.467 136.232 482.093C135.457 481.993 134.682 481.892 133.884 481.789C132.511 481.968 131.138 482.146 129.723 482.33Z" fill="#1C1C1C"/>
<path d="M91.3574 426.077C91.5342 426.456 91.711 426.835 91.8932 427.226C91.295 427.505 90.6968 427.784 90.0805 428.071C89.9583 428.59 89.836 429.108 89.71 429.643C89.0234 429.732 88.3368 429.821 87.6294 429.913C87.8063 430.293 87.9831 430.672 88.1652 431.063C87.567 431.341 86.9689 431.62 86.3526 431.908C86.1734 430.636 86.1734 430.636 86.1873 429.187C87.7321 427.767 87.7321 427.767 91.3574 426.077Z" fill="#EBEAEB"/>
<path d="M102.809 415.142C103.496 415.053 104.182 414.963 104.89 414.871C106.143 416.079 106.143 416.079 107.135 417.321C102.63 418.898 102.63 418.898 99.9875 418.556C100.919 417.429 101.85 416.303 102.809 415.142Z" fill="#EAEAEA"/>
<path d="M352.99 260.723C355.772 259.294 355.772 259.294 358.428 258.187C358.904 258.427 359.38 258.667 359.87 258.914C356.415 261.988 356.415 261.988 353.678 262.937C353.118 263.054 352.558 263.171 351.981 263.291C352.314 262.444 352.647 261.596 352.99 260.723Z" fill="#161616"/>
<path d="M545.064 135.495C547.072 135.957 547.072 135.957 548.854 136.525C544.851 139.179 544.851 139.179 542.51 139.483C542.245 138.914 541.98 138.346 541.706 137.76C543.251 136.34 543.251 136.34 545.064 135.495Z" fill="#DBDBDB"/>
<path d="M542.881 137.912C543.213 139.068 543.213 139.068 543.046 140.632C541.058 142.433 541.058 142.433 539.05 143.894C538.785 143.326 538.519 142.757 538.246 142.171C540.464 139.038 540.464 139.038 542.881 137.912Z" fill="#F1F1F1"/>
<path d="M612.271 206.278C612.869 205.999 613.468 205.72 614.084 205.433C614.614 206.571 615.145 207.708 615.691 208.88C614.882 209.488 614.074 210.096 613.24 210.723C612.169 208.425 612.169 208.425 612.271 206.278Z" fill="#030303"/>
<path d="M332.475 275.883C331.837 276.881 331.837 276.881 330.188 277.717C328.321 278.565 326.454 279.413 324.586 280.261C324.957 278.69 324.957 278.69 326.398 277.493C328.75 276.181 330.043 276.051 332.475 275.883Z" fill="#121212"/>
<path d="M395.565 228.981C397.536 228.524 399.508 228.066 401.539 227.595C400.315 229.258 400.315 229.258 398.717 231.009C397.731 231.237 396.746 231.466 395.73 231.702C395.676 230.804 395.621 229.906 395.565 228.981Z" fill="#292929"/>
<path d="M400.08 387.749C401.243 387.9 402.405 388.05 403.603 388.205C402.074 389.611 400.544 391.016 398.969 392.464C398.72 390.574 398.715 389.882 400.08 387.749Z" fill="#141414"/>
<path d="M407.907 378.504C408.682 378.605 409.457 378.705 410.255 378.808C409.552 380.33 408.787 381.853 407.969 383.371C407.371 383.65 406.773 383.929 406.157 384.216C406.349 382.088 406.488 380.72 407.907 378.504Z" fill="#1D1D1D"/>
<path d="M104.078 493.588C103.956 494.107 103.833 494.625 103.707 495.16C101.806 496.557 99.87 497.929 97.8989 499.267C97.7221 498.888 97.5453 498.509 97.3631 498.118C100.484 494.422 100.484 494.422 104.078 493.588Z" fill="#EAEAEA"/>
<path d="M265.585 435.73C266.799 436.713 266.799 436.713 267.72 438.249C266.882 440.298 266.882 440.298 265.379 442.669C264.855 443.51 264.331 444.352 263.79 445.219C263.264 446.059 262.738 446.9 262.197 447.766C261.06 449.857 259.933 451.947 258.828 454.04C257.193 456.234 256.124 456.929 253.273 458.32C252.039 458.606 250.804 458.891 249.532 459.186C243.746 460.713 240.072 464.157 235.7 467.726C234.108 469.019 232.506 470.305 230.893 471.584C230.195 472.154 229.498 472.723 228.779 473.31C225.985 475.047 224.343 475.102 221.302 475.534C218.786 477.615 217.596 478.928 216.744 481.365C215.921 483.638 214.978 484.356 212.379 486.088C209.59 486.78 209.59 486.78 206.512 487.203C204.994 487.42 204.994 487.42 203.445 487.641C202.457 487.776 201.468 487.911 200.45 488.05C198.684 488.334 196.916 488.625 195.148 488.922C194.09 489.061 193.032 489.201 191.941 489.344C188.112 490.091 185.227 491.22 181.51 492.838C180.345 493.34 179.18 493.843 177.98 494.36C176.667 494.938 176.667 494.938 175.327 495.529C174.947 495.276 174.566 495.022 174.174 494.762C177.983 491.425 182.075 488.618 186.557 485.821C187.62 485.153 188.683 484.486 189.779 483.798C193.124 482.08 193.124 482.08 196.823 481.302C201.589 480.119 203.397 478.598 206.893 475.572C207.423 475.134 207.953 474.696 208.5 474.244C211.388 471.86 211.388 471.86 213.399 469.181C215.022 467.743 216.67 466.319 218.33 464.903C221.942 461.781 225.045 458.79 227.924 455.344C230.948 451.728 233.784 448.993 238.044 445.998C238.605 445.913 239.166 445.828 239.744 445.741C243.258 445.128 246.441 443.515 249.806 442.001C255.063 439.648 260.174 437.578 265.585 435.73Z" fill="#F9F9F9"/>
<path d="M577.198 127.506L543.251 136.34L491.205 267.273L610.298 235.176L643.04 223.757L679.746 206.643L711.664 197.007L745.794 172L727.176 132.069L691.413 55.3677L678.499 69.0828L639.621 94.5543L602.122 115.885L577.198 127.506Z" fill="white"/>
<path d="M518.931 131.873L481.981 157.69L463.977 170.45L451.707 186.109L516.915 137.39L545.12 120.059L518.931 131.873Z" fill="#FFFBFB" stroke="black"/>
</g>
<defs>
<clipPath id="clip0_18_5">
<rect width="735" height="284" fill="white" transform="translate(0 310.597) rotate(-24.9977)"/>
</clipPath>
</defs>
</svg>
