<svg width="735" height="284" viewBox="0 0 735 284" fill="none" xmlns="http://www.w3.org/2000/svg">
<g clip-path="url(#clip0_11_2)">
<path d="M568 71.6339C569 72.2679 570 72.9018 571 73.5357C574.464 74.9474 577.971 75.0989 582 75.4375C582.101 77.9949 582.172 80.552 582.22 83.1101C582.24 83.9763 582.267 84.8424 582.302 85.7083C582.592 93.0572 581.729 100.418 574.125 106.342C573.424 106.911 572.723 107.481 572 108.067C571.34 108.596 570.68 109.125 570 109.67C567.04 112.323 564.297 115.06 561.617 117.829C561.186 118.272 560.756 118.715 560.312 119.172C559.462 120.049 558.616 120.929 557.778 121.811C555.722 123.934 553.603 125.869 550.992 127.734C547.854 129.982 545.517 132.406 543.125 134.987C539.8 138.478 536.44 141.392 531.672 144.167C529.292 145.594 527.706 147.207 526 148.973C525.003 149.912 524.003 150.85 523 151.786C521.184 153.49 519.688 155.082 518.25 156.937C514.652 161.065 507.273 163.784 501 166.089C509.895 167.825 522.774 167.49 531.145 164.755C533.142 163.968 535.07 163.137 537 162.286C543.477 159.702 548.21 159.113 555.812 159.076C562.823 158.903 567.838 157.527 573.927 155.415C582.999 152.293 592.747 150.402 603 149.607C602.046 155.956 599.842 161.398 596.355 167.387C594.822 170.122 593.668 172.912 592.5 175.717C590.652 180.129 588.322 184.209 585 188.277C583.424 188.312 583.424 188.312 581.816 188.349C571.653 188.566 571.653 188.566 562.09 190.604C559.257 190.886 557.578 190.129 555.058 189.376C551.091 188.479 546.976 188.664 542.812 188.713C541.924 188.711 541.035 188.709 540.119 188.706C535.74 188.729 532.897 188.855 529 190.179C526.746 190.325 526.746 190.325 524.438 190.297C523.673 190.293 522.909 190.289 522.121 190.285C520 190.179 520 190.179 517 189.545C514.92 189.499 512.839 189.491 510.758 189.505C509.527 189.51 508.296 189.515 507.027 189.52C504.434 189.536 501.84 189.553 499.246 189.569C498.012 189.574 496.779 189.579 495.508 189.584C493.816 189.595 493.816 189.595 492.09 189.607C489 189.545 489 189.545 486.414 189.15C483.318 188.843 481.725 189.328 478.875 190.119C473.091 191.544 468.152 191.768 462 191.763C451.286 191.898 440.757 192.477 430.125 193.269C429.369 193.325 428.613 193.382 427.834 193.439C417.783 194.195 407.757 195.032 397.777 196.112C394.419 196.473 391.062 196.778 387.688 197.073C378.02 197.998 368.51 199.535 359 200.955C359 201.374 359 201.792 359 202.223C361.97 202.642 364.94 203.06 368 203.491C368 203.909 368 204.328 368 204.759C366.949 204.92 365.899 205.081 364.816 205.247C355.727 206.632 355.727 206.632 346.813 208.404C343.771 209.087 341.267 209.397 338 209.196C338 209.615 338 210.033 338 210.464C331.137 211.842 324.268 213.206 317.395 214.562C315.057 215.024 312.722 215.49 310.388 215.958C307.03 216.632 303.668 217.294 300.305 217.955C299.264 218.166 298.223 218.378 297.151 218.595C291.301 219.731 286.887 220.523 281.116 218.766C280.59 218.536 280.063 218.306 279.52 218.069C278.919 217.811 278.318 217.553 277.699 217.288C277.076 217.01 276.454 216.733 275.813 216.447C275.154 216.16 274.495 215.873 273.817 215.578C271.87 214.726 269.934 213.864 268 213C266.532 212.355 266.532 212.355 265.035 211.697C261.139 209.949 257.435 208.259 254.137 206.064C248.929 202.7 244.701 200.584 237.07 200.315C225.337 200.345 210.6 201.399 200 204.759C198.19 204.82 196.375 204.841 194.563 204.838C193.594 204.84 192.626 204.841 191.629 204.843C189 204.759 189 204.759 186 204.125C178.124 203.572 171.707 204.802 164.375 206.502C162.241 206.97 160.105 207.436 157.969 207.899C156.941 208.123 155.914 208.347 154.855 208.579C137.381 212.359 120.655 212.785 102.574 210.471C95.4313 209.573 90.2686 209.973 83.4531 211.405C77.8911 212.475 72.4667 212.824 66.6875 213.079C64.7746 213.172 62.8618 213.266 60.9492 213.362C60.1174 213.399 59.2855 213.437 58.4285 213.476C55.9059 213.64 53.4775 213.929 51 214.268C51.33 213.64 51.66 213.013 52 212.366C52.66 212.366 53.32 212.366 54 212.366C54 211.738 54 211.111 54 210.464C50.04 210.673 46.08 210.883 42 211.098C44.949 209.229 47.7066 208.101 51.2578 206.777C53.1513 206.093 53.1513 206.093 54 204.759C52.8334 204.944 51.6668 205.13 50.4649 205.321C47.7509 205.751 45.0351 206.175 42.3164 206.594C35.2778 207.685 28.2744 208.833 21.3125 210.108C20.3536 210.28 20.3536 210.28 19.3753 210.455C14.901 211.289 10.5724 212.307 6.22341 213.374C5.05678 213.66 3.89017 213.946 2.68819 214.241C1.8011 214.459 0.913995 214.677 2.14577e-05 214.902C-0.371373 206.581 -0.655299 198.261 -0.828958 189.938C-0.912329 186.073 -1.02531 182.209 -1.20701 178.345C-1.38141 174.613 -1.47666 170.883 -1.51804 167.149C-1.54752 165.728 -1.60508 164.306 -1.69169 162.886C-2.327 152.032 -2.32697 152.032 1.61458 148.999C5.89088 146.672 12.1963 143.902 18 143.902C18 144.529 18 145.157 18 145.804C38.9894 141.766 38.9894 141.766 58 135.027C60.377 134.194 62.7717 133.397 65.1953 132.62C67.992 131.438 69.5895 129.982 70.8125 128.014C72.9365 125.817 76.5478 125.158 80.3125 124.448C84.2102 124.161 88.0811 124.201 92 124.25C88.9433 126.399 85.2154 127.597 81.2774 129.004C78.7503 129.925 78.7503 129.925 77 131.857C88.8315 132.554 97.103 130.908 107.868 127.972C112.014 126.898 116.295 126.136 120.594 125.345C122.982 124.934 122.982 124.934 125 124.25C127.207 124.205 129.417 124.197 131.625 124.21C132.814 124.216 134.002 124.222 135.227 124.228C136.142 124.235 137.057 124.242 138 124.25C138 123.832 138 123.413 138 122.982C138.664 122.997 139.328 123.012 140.012 123.027C144.928 123.09 148.453 122.986 153 121.714C155.313 121.952 155.313 121.952 157 122.348C156.67 122.557 156.34 122.767 156 122.982C162.819 123.24 168.515 122.651 175.082 121.504C179.164 120.911 182.83 120.948 187 121.08C187 121.499 187 121.917 187 122.348C192.014 121.342 196.771 120.237 201.563 118.862C214.373 115.444 231.474 113.688 245.25 115.296C250.983 115.723 255.928 114.641 261.313 113.513C262.173 113.342 263.034 113.17 263.921 112.994C269.575 111.712 272.465 110.253 275.637 107.009C277.219 105.682 278.652 105.289 281 104.598C282.439 103.25 282.439 103.25 283.563 101.706C284.754 100.158 284.754 100.158 286 98.8929C287.485 98.5791 287.485 98.5791 289 98.2589C288.28 101.18 286.687 103.757 285 106.5C285.866 106.291 286.733 106.082 287.625 105.866C296.116 104.331 305.675 104.811 314 106.5C314 106.918 314 107.337 314 107.768C312.02 108.186 310.04 108.605 308 109.036C320.671 109.554 330.895 108.512 342.801 105.736C345.02 105.228 347.254 104.764 349.5 104.306C354.101 103.339 358.515 102.167 362.938 100.914C364.117 100.584 364.117 100.584 365.32 100.247C369.618 99.0225 373.57 97.7024 377.5 96.0402C382.272 94.0903 386.458 94.0517 392 94.4554C392.33 94.8737 392.66 95.2921 393 95.7232C397.512 94.8431 401.634 93.6952 405.852 92.3678C408.339 91.849 409.567 92.0058 412 92.5536C411.553 92.7767 411.105 92.9997 410.645 93.2296C410.04 93.5426 409.435 93.8556 408.813 94.178C407.925 94.6303 407.925 94.6303 407.02 95.0918C404.248 96.8282 402.209 98.7602 400 100.795C403.481 100.311 406.959 99.8204 410.438 99.3287C411.898 99.1258 411.898 99.1258 413.389 98.9189C418.705 98.1636 423.83 97.2822 428.974 96.1462C432.923 95.3217 437.013 94.8741 441.082 94.3563C443.987 93.9685 443.987 93.9685 445.697 92.8605C448.933 91.5385 452.038 91.5972 455.773 91.5457C457.337 91.5057 458.901 91.4657 460.465 91.4256C462.904 91.374 465.343 91.3259 467.783 91.2803C478.562 91.0642 487.695 90.2477 498 88.1161C500.84 87.6515 503.698 87.249 506.563 86.8482C517.943 85.1899 528.401 82.9856 539 79.875C541.072 79.2774 543.145 78.6806 545.219 78.0846C547.313 77.4797 549.406 76.8747 551.5 76.2695C553.105 75.808 553.105 75.808 554.742 75.3372C555.766 75.041 556.789 74.7448 557.844 74.4396C558.763 74.1742 559.683 73.9089 560.631 73.6355C567.094 71.6339 567.094 71.6339 568 71.6339Z" fill="#FDFDFD"/>
<path d="M525 164.821C525 165.24 525 165.658 525 166.089C519.605 167.529 514.738 167.487 509 167.357C513.629 164.423 518.853 164.669 525 164.821Z" fill="#0C0C0C"/>
<path d="M239.562 195.844C240.769 195.864 240.769 195.864 242 195.884C242.248 196.355 242.495 196.825 242.75 197.31C244.091 199.181 245.609 200.225 248 201.589C247.01 201.589 246.02 201.589 245 201.589C244.67 201.38 244.34 201.171 244 200.955C242.485 200.808 240.962 200.694 239.438 200.599C238.611 200.546 237.785 200.493 236.934 200.438C236.296 200.399 235.657 200.361 235 200.321C235 200.112 235 199.903 235 199.687C236.98 199.478 238.96 199.269 241 199.054C240.67 198.426 240.34 197.798 240 197.152C237.985 196.687 237.985 196.687 236 196.518C237 195.884 237 195.884 239.562 195.844Z" fill="#F5F5F3"/>
<path d="M644 122.982C644.66 123.61 645.32 124.237 646 124.884C647.32 124.466 648.64 124.047 650 123.616C650 124.662 650 125.708 650 126.786C647.094 127.582 645.204 128.054 642 128.054C642.66 126.38 643.32 124.706 644 122.982Z" fill="#060606"/>
<path d="M245 196.518C245.99 196.518 246.98 196.518 248 196.518C248 196.936 248 197.355 248 197.786C249.176 198.08 249.176 198.08 250.375 198.38C253 199.054 253 199.054 255 199.688C255 200.106 255 200.524 255 200.955C251.001 200.565 248.196 199.305 245 197.786C245 197.367 245 196.949 245 196.518Z" fill="#F3F2F0"/>
<path d="M568 71.6339C569.625 72.9018 569.625 72.9018 571 74.1696C566.25 74.8828 566.25 74.8828 564 74.1696C564 73.5421 564 72.9145 564 72.2679C566 71.6339 566 71.6339 568 71.6339Z" fill="#DBDBDB"/>
<path d="M565 72.9018C564.812 74.0904 564.812 74.0904 564 75.4375C561.438 76.2299 561.438 76.2299 559 76.7054C559 76.0778 559 75.4502 559 74.8036C562.333 72.9018 562.333 72.9018 565 72.9018Z" fill="#F1F1F1"/>
<path d="M599 164.188C599.66 164.188 600.32 164.188 601 164.188C601 165.443 601 166.698 601 167.991C600.01 168.2 599.02 168.409 598 168.625C598 166.089 598 166.089 599 164.188Z" fill="#030303"/>
<path d="M600.5 77.9732L566 71.6339L463.5 168.308L585 189.545L619.5 193.031H660L693 197.786L734.5 189.545V145.487V60.8571L717 67.8304L671 74.4866L628 77.9732H600.5Z" fill="white"/>
</g>
<defs>
<clipPath id="clip0_11_2">
<rect width="735" height="284" fill="white"/>
</clipPath>
</defs>
</svg>
